<?xml version="1.0" encoding="UTF-8" standalone="no"?>
<svg
   xmlns:dc="http://purl.org/dc/elements/1.1/"
   xmlns:cc="http://creativecommons.org/ns#"
   xmlns:rdf="http://www.w3.org/1999/02/22-rdf-syntax-ns#"
   xmlns:svg="http://www.w3.org/2000/svg"
   xmlns="http://www.w3.org/2000/svg"
   id="svg8"
   version="1.1"
   viewBox="0 0 210 297"
   height="297mm"
   width="210mm">
  <defs
     id="defs2">
    <filter
       height="1.0430321"
       y="-0.02151607"
       width="1.0266687"
       x="-0.013334356"
       id="filter4916"
       style="color-interpolation-filters:sRGB">
      <feGaussianBlur
         id="feGaussianBlur4918"
         stdDeviation="0.40228902" />
    </filter>
    <filter
       height="1.0379149"
       y="-0.018957427"
       width="1.0280707"
       x="-0.014035365"
       id="filter4920"
       style="color-interpolation-filters:sRGB">
      <feGaussianBlur
         id="feGaussianBlur4922"
         stdDeviation="0.40228902" />
    </filter>
    <filter
       height="1.2928703"
       y="-0.14643515"
       width="1.0404247"
       x="-0.020212358"
       id="filter4924"
       style="color-interpolation-filters:sRGB">
      <feGaussianBlur
         id="feGaussianBlur4926"
         stdDeviation="0.40228902" />
    </filter>
    <filter
       height="1.1626558"
       y="-0.081327911"
       width="1.0261133"
       x="-0.013056626"
       id="filter4928"
       style="color-interpolation-filters:sRGB">
      <feGaussianBlur
         id="feGaussianBlur4930"
         stdDeviation="0.40228902" />
    </filter>
    <filter
       height="1.1458984"
       y="-0.072949203"
       width="1.0278212"
       x="-0.013910623"
       id="filter4932"
       style="color-interpolation-filters:sRGB">
      <feGaussianBlur
         id="feGaussianBlur4934"
         stdDeviation="0.40228902" />
    </filter>
    <filter
       height="1.2413592"
       y="-0.12067961"
       width="1.1204245"
       x="-0.060212237"
       id="filter4936"
       style="color-interpolation-filters:sRGB">
      <feGaussianBlur
         id="feGaussianBlur4938"
         stdDeviation="0.40228902" />
    </filter>
    <filter
       height="1.018822"
       y="-0.009410986"
       width="1.027469"
       x="-0.013734492"
       id="filter4940"
       style="color-interpolation-filters:sRGB">
      <feGaussianBlur
         id="feGaussianBlur4942"
         stdDeviation="0.40228902" />
    </filter>
    <filter
       height="1.010602"
       y="-0.0053009888"
       width="1.1486709"
       x="-0.074335439"
       id="filter4944"
       style="color-interpolation-filters:sRGB">
      <feGaussianBlur
         id="feGaussianBlur4946"
         stdDeviation="0.40228902" />
    </filter>
  </defs>
  <metadata
     id="metadata5">
    <rdf:RDF>
      <cc:Work
         rdf:about="">
        <dc:format>image/svg+xml</dc:format>
        <dc:type
           rdf:resource="http://purl.org/dc/dcmitype/StillImage" />
        <dc:title></dc:title>
      </cc:Work>
    </rdf:RDF>
  </metadata>
  <g
     id="layer1">
    <path
       transform="matrix(1.0377147,0,0,1.0326184,-1.3227228,-1.3848401)"
       style="opacity:0.98999999;fill:#000800;fill-opacity:1;stroke:#f00000;stroke-width:0.96499997;stroke-linecap:square;stroke-linejoin:round;stroke-miterlimit:4;stroke-dasharray:0.965, 1.93;stroke-dashoffset:0;stroke-opacity:1;paint-order:fill markers stroke;filter:url(#filter4944)"
       d="m 109.31874,44.685629 c -0.0788,1.731455 -0.0572,3.465889 -0.0513,5.198663 0.0409,1.894002 -0.11965,3.793919 0.0633,5.68193 0.28324,1.581563 0.45196,3.177 0.77116,4.751689 0.35232,1.863127 0.54247,3.74977 0.61612,5.642922 0.20538,1.939105 0.49033,3.867335 0.66398,5.810015 0.13337,1.615133 0.15676,3.236145 0.16989,4.855815 0.007,1.512126 0.003,3.024273 0.001,4.536403 -0.002,1.51021 -0.002,3.02042 -0.003,4.530633 -0.0181,1.836179 -0.0285,3.672525 -0.024,5.508812 -0.004,2.023396 -0.0169,4.046474 -0.004,6.069926 0.0238,1.953913 -0.01,3.907593 -0.003,5.861563 0.0106,1.73775 0.0215,3.4755 0.0272,5.21327 5.3e-4,1.70935 -0.004,3.41881 -0.0198,5.1281 0.0133,1.98774 -0.012,3.97531 -0.014,5.96299 0.0166,1.90882 0.0167,3.81752 0.0159,5.72636 0.005,1.69848 0.0135,3.39694 0.0182,5.09543 0.004,1.52576 0.004,3.05153 0.004,4.57729 1.5e-4,1.50987 3e-5,3.01973 -10e-6,4.5296 -5e-5,1.51156 -6e-5,3.02312 -7e-5,4.53468 0.0663,0.72774 0.0563,1.45261 0.0393,2.18215 0.0104,1.20913 0.32763,2.39536 0.47602,3.59776 0.17546,1.58199 0.21082,3.17437 0.23414,4.76443 0.0123,1.55741 0.0201,3.11504 -10e-4,4.67238 -0.0117,1.70427 -0.003,3.4086 0.002,5.11289 0.004,1.54067 0.005,3.08134 0.006,4.62202 -0.003,1.54272 0.009,3.08549 -0.0105,4.62812 -0.0233,1.88856 -0.0166,3.77712 -0.007,5.66575 0.011,1.76222 -0.003,3.52433 0.002,5.28659 0.007,1.60689 0.011,3.21379 0.0132,4.8207 -0.024,1.72244 -0.0122,3.44513 -0.007,5.16766 -0.0265,2.02241 -0.0295,4.04502 -0.0268,6.06757 0.0189,1.86042 0.0163,3.72074 0.0143,5.58117 0.004,1.69161 0.0122,3.38319 0.0167,5.07479 -0.11122,1.5521 -0.42969,3.07739 -0.59161,4.62514 -0.13569,1.49131 -0.14999,2.98976 -0.16174,4.48605 -0.004,1.00539 -0.002,0.50256 -0.004,1.5085 0,0 -9.92183,5.05487 -9.92183,5.05487 v 0 c -2.6e-4,-1.00909 -5.3e-4,-0.50445 7.9e-4,-1.51393 0.006,-1.52512 0.0119,-3.05177 0.11855,-4.57392 0.12822,-1.52493 0.35947,-3.03263 0.64629,-4.53568 0.004,-1.69726 0.013,-3.39451 0.0167,-5.09178 -0.002,-1.86531 -0.004,-3.7305 0.0143,-5.5958 0.003,-2.01346 -8e-5,-4.02698 -0.0268,-6.04028 0.005,-1.72022 0.0173,-3.4406 -0.007,-5.16072 0.002,-1.61141 0.006,-3.22281 0.0133,-4.83421 0.006,-1.76311 -0.008,-3.52607 0.002,-5.28914 0.01,-1.8864 0.0168,-3.77272 -0.007,-5.65905 -0.02,-1.53903 -0.008,-3.07822 -0.0106,-4.61735 5.3e-4,-1.54279 0.002,-3.08559 0.006,-4.62837 0.005,-1.70618 0.0156,-3.41239 0.008,-5.11857 -0.0182,-1.55038 -7.9e-4,-3.10086 -0.0102,-4.65132 -0.0119,-1.55307 -0.0261,-3.10894 -0.17941,-4.65588 -0.14716,-1.24236 -0.48833,-2.4426 -0.61962,-3.67502 -0.0177,-0.74281 -0.0248,-1.48095 0.0393,-2.22224 0,-1.51154 -10e-6,-3.02308 -6e-5,-4.53461 -5e-5,-1.50987 -1.6e-4,-3.01973 -2e-5,-4.52959 2.7e-4,-1.52722 5.3e-4,-3.05445 0.004,-4.58167 0.005,-1.70465 0.0135,-3.40928 0.0182,-5.11392 -8e-4,-1.91424 -5.3e-4,-3.82834 0.0159,-5.74256 -0.002,-1.98293 -0.0274,-3.96574 -0.014,-5.94872 -0.0162,-1.70254 -0.0203,-3.40527 -0.0198,-5.10787 0.006,-1.747 0.0165,-3.49397 0.0272,-5.24095 0.006,-1.9528 -0.0272,-3.90531 -0.003,-5.85806 0.0125,-2.022 -2.7e-4,-4.043612 -0.004,-6.06555 0.004,-1.828231 -0.006,-3.656518 -0.0238,-5.484646 1.5e-4,-1.510477 2.7e-4,-3.020954 0.002,-4.531431 0.002,-1.510533 0.005,-3.021068 0.005,-4.531603 -0.003,-1.600751 -0.007,-3.202544 -0.0987,-4.80123 -0.13122,-1.961261 -0.36869,-3.90928 -0.67568,-5.85084 -0.0775,-1.833086 -0.1726,-3.672321 -0.54763,-5.473774 -0.340169,-1.609026 -0.577476,-3.227186 -0.820292,-4.854077 -0.205293,-1.916909 -0.06576,-3.855593 -0.117512,-5.781376 0.0058,-1.71532 0.02855,-3.43244 -0.05131,-5.146379 0,0 9.994624,-5.092515 9.994624,-5.092515 z"
       id="path3871" />
    <path
       transform="matrix(1.0377147,0,0,1.0326184,-1.3227228,-1.3848401)"
       style="opacity:0.98999999;fill:#000800;fill-opacity:1;stroke:#f00000;stroke-width:0.96499997;stroke-linecap:square;stroke-linejoin:round;stroke-miterlimit:4;stroke-dasharray:0.965, 1.93;stroke-dashoffset:0;stroke-opacity:1;paint-order:fill markers stroke;filter:url(#filter4940)"
       d="m 110.82292,44.239052 c 2.02077,0.0674 4.04385,0.05607 6.06557,0.04957 1.79276,-0.0092 3.58551,-0.01775 5.37828,-0.02222 1.52582,-0.0032 3.05164,-0.0033 4.57746,-0.0034 1.71446,0.01188 3.42901,0.0044 5.14347,0.01463 1.83067,0.055 3.67403,-0.13676 5.48985,0.131646 1.73561,0.226492 3.39786,0.767792 5.11881,1.076029 1.3158,0.454126 2.64692,0.778402 3.94511,1.271566 0.18835,0.05573 0.3836,0.09198 0.56505,0.16718 0.34761,0.185581 0.70979,0.39121 1.076,0.541496 0.5536,0.227185 1.09583,0.328615 1.64073,0.586886 1.2604,0.422463 2.451,1.008411 3.67494,1.523561 1.23748,0.662897 2.37348,1.479232 3.4562,2.371074 1.31428,0.804981 2.50838,1.76122 3.75723,2.656379 1.02347,0.786215 1.91284,1.722729 2.89471,2.553772 1.07408,0.851688 1.92963,1.928074 2.92377,2.862529 0.97935,0.824437 1.5502,1.851843 2.15308,2.951319 0.49141,1.090909 1.05196,2.144059 1.405,3.2912 0.34056,1.410655 0.71723,2.804445 0.93883,4.240461 0.22178,1.597602 0.22197,3.211557 0.23054,4.820653 -0.01,2.047835 -0.0121,4.095794 -0.0234,6.143669 -0.005,1.916068 0.0304,3.832 0.0164,5.748023 -0.003,1.737818 0.008,3.47562 0.0135,5.213421 -0.0498,1.35141 0.33455,2.661844 0.52882,3.989954 0.18681,1.455759 0.21055,2.925159 0.23022,4.39065 -0.004,1.83665 -0.0201,3.67322 -0.0174,5.50989 0.008,1.83967 -0.003,3.67921 0.004,5.51891 0.008,1.61588 0.0126,3.23177 0.0151,4.84767 0.0935,2.05225 -0.14209,4.08137 -0.46356,6.10406 -0.32885,2.0808 -0.65615,4.16165 -1.49905,6.10389 -0.59384,1.2816 -1.58656,2.30564 -2.57251,3.29355 -3.68464,3.73942 -9.2457,6.09266 -13.4657,8.51951 23.10345,-13.28519 -0.92876,0.55138 -1.39784,0.81893 -0.99344,0.56662 -2.10152,0.81623 -3.11625,1.32707 -1.27591,0.46029 -2.40201,1.15681 -3.73414,1.45665 -1.73488,0.81679 -3.47907,1.49817 -5.34435,1.95139 -2.05517,0.39311 -4.14628,0.50334 -6.2333,0.55416 -1.59276,0.0243 -3.18579,0.0126 -4.77865,0.007 -1.50805,-0.005 -3.01611,-0.007 -4.52417,-0.007 -1.51038,-5.3e-4 -3.02077,-5.3e-4 -4.53115,-5.3e-4 -1.51188,3e-5 -3.02374,6e-5 -4.53561,8e-5 -1.49869,-0.0642 -3.02262,0.15278 -4.49843,-0.14497 -1.33847,-0.27707 -2.66329,-0.50434 -3.98465,-0.85065 -0.94801,-0.24258 -1.92065,-0.34242 -2.89268,-0.42568 0,0 9.07867,-6.44959 9.07867,-6.44959 v 0 c 1.00559,0.12796 2.00713,0.28441 2.98754,0.54913 1.29528,0.31092 2.61873,0.48622 3.92584,0.7408 1.4618,0.0856 2.92867,0.0105 4.39226,0.0358 1.51189,-3e-5 3.02377,-7e-5 4.53565,-1.1e-4 1.51069,-1e-5 3.02137,-1.1e-4 4.53205,0.001 1.50833,0.002 3.01666,0.004 4.52498,0.011 1.57619,0.007 3.15275,0.0208 4.72868,-0.0168 2.02557,-0.0705 4.06259,-0.19945 6.02916,-0.72777 1.86251,-0.56292 3.58703,-1.43963 5.42933,-2.05337 1.22233,-0.46788 2.39014,-1.07056 3.61352,-1.53988 0.78482,-0.30244 1.55474,-0.60704 2.30235,-0.99532 0.25466,-0.13227 1.00377,-0.55659 0.75578,-0.41221 -4.34257,2.52821 -20.92148,12.09367 1.38074,-0.78186 -16.32704,9.51539 -8.75705,5.54454 -5.46696,2.73711 0.88737,-1.01793 1.94773,-1.86335 2.72192,-2.98017 0.95741,-1.89364 1.53756,-3.7674 1.78037,-5.89759 0.32447,-1.94712 0.48153,-3.89935 0.40191,-5.87403 0.002,-1.6212 0.007,-3.24239 0.0156,-4.86357 0.008,-1.84228 -0.002,-3.68443 0.01,-5.52667 0.006,-1.82396 1.2e-4,-3.64813 -0.0264,-5.47189 -0.0139,-1.41979 -0.027,-2.84297 -0.18335,-4.25581 -0.18236,-1.38373 -0.60042,-2.742004 -0.5669,-4.143777 0.006,-1.742562 0.0166,-3.485121 0.0139,-5.227696 -0.0134,-1.923132 0.0235,-3.846131 0.0231,-5.769295 -0.007,-2.036567 0.002,-4.073088 -0.0216,-6.1096 -0.0161,-1.557713 -0.0319,-3.119601 -0.1932,-4.670361 -0.18574,-1.390658 -0.55176,-2.725949 -0.89661,-4.080931 -0.30366,-1.081693 -0.8565,-2.053367 -1.29949,-3.080366 -0.54209,-1.005467 -1.07035,-1.92047 -1.96421,-2.676848 -0.9451,-0.962456 -1.83386,-1.9846 -2.91347,-2.804366 -0.9167,-0.850001 -1.81458,-1.71981 -2.79748,-2.495508 -1.23432,-0.936532 -2.5044,-1.807604 -3.78328,-2.682097 -1.04412,-0.786725 -2.10091,-1.571799 -3.29006,-2.128819 -1.22348,-0.531669 -2.46912,-1.000974 -3.71015,-1.488511 -1.10107,-0.388573 -2.15816,-0.863034 -3.25278,-1.266272 -1.23705,-0.459613 -2.52686,-0.770517 -3.78727,-1.158108 -1.68109,-0.363725 -3.34009,-0.840706 -5.06026,-0.995638 -1.79779,-0.108442 -3.60293,-0.01714 -5.40326,-0.0492 -1.72789,0.01019 -3.45588,0.0028 -5.18376,0.01463 -1.52267,-1.46e-4 -3.04534,-2.54e-4 -4.568,-0.0034 -1.77238,-0.0044 -3.54474,-0.01304 -5.31711,-0.02222 -2.06725,-0.0067 -4.13565,-0.0159 -6.20203,0.04957 0,0 9.07492,-6.593322 9.07492,-6.593322 z"
       id="path3873" />
    <path
       transform="matrix(1.0377147,0,0,1.0326184,-1.3227228,-1.3848401)"
       style="opacity:0.98999999;fill:#000800;fill-opacity:1;stroke:#f00000;stroke-width:0.96499997;stroke-linecap:square;stroke-linejoin:round;stroke-miterlimit:4;stroke-dasharray:0.965, 1.93;stroke-dashoffset:0;stroke-opacity:1;paint-order:fill markers stroke;filter:url(#filter4936)"
       d="m 106.89136,148.35023 c -1.47356,-0.34838 -2.94756,-0.54885 -4.39992,-0.98197 -0.89469,-0.14612 -1.71559,-0.45763 -2.559991,-0.77113 0,0 9.263271,-6.24737 9.263271,-6.24737 v 0 c 0.81816,0.29276 1.65586,0.49641 2.49484,0.72073 1.38928,0.3825 2.8395,0.61657 4.27673,0.68642 0,0 -9.07493,6.59332 -9.07493,6.59332 z"
       id="path3875" />
    <path
       transform="matrix(1.0377147,0,0,1.0326184,-1.3227228,-1.3848401)"
       style="opacity:0.98999999;fill:#000800;fill-opacity:1;stroke:#f00000;stroke-width:0.96499997;stroke-linecap:square;stroke-linejoin:round;stroke-miterlimit:4;stroke-dasharray:0.965, 1.93;stroke-dashoffset:0;stroke-opacity:1;paint-order:fill markers stroke;filter:url(#filter4932)"
       d="m 114.08838,140.26653 c 4.31,0.47109 8.61697,0.95411 12.90498,1.60464 3.74686,0.60525 7.50653,1.11846 11.29495,1.36294 2.374,0.28282 4.6773,0.91008 7.04217,1.25402 2.32809,0.0431 4.52985,0.69185 6.7681,1.24665 1.63546,0.40911 3.31569,0.52371 4.99388,0.57635 1.50697,0.0295 3.01438,0.0183 4.52153,0.0138 1.50939,-0.005 3.01878,-0.007 4.52817,-0.008 1.55621,-0.0725 3.06104,10e-4 4.58728,0.2895 1.23696,0.24455 2.49341,0.34399 3.75019,0.41191 0,0 -9.05288,6.48284 -9.05288,6.48284 v 0 c -1.27761,-0.1062 -2.54864,-0.26365 -3.80949,-0.4995 -1.48731,-0.20865 -2.98465,-0.13114 -4.48317,-0.13875 -1.50927,0.002 -3.01854,0.005 -4.5278,0.009 -1.51669,0.002 -3.03443,0.011 -4.54981,-0.0623 -1.71147,-0.11021 -3.41329,-0.3278 -5.06693,-0.802 -2.19833,-0.58832 -4.40034,-1.01563 -6.67546,-1.18314 -2.32116,-0.39738 -4.6129,-0.9657 -6.95884,-1.20981 -3.70004,-0.35835 -7.35411,-1.0402 -11.01986,-1.64307 -4.3924,-0.61375 -8.82418,-1.10454 -13.26269,-1.1553 0,0 9.01568,-6.55028 9.01568,-6.55028 z"
       id="path3877" />
    <path
       transform="matrix(1.0377147,0,0,1.0326184,-1.3227228,-1.3848401)"
       style="opacity:0.98999999;fill:#000800;fill-opacity:1;stroke:#f00000;stroke-width:0.96499997;stroke-linecap:square;stroke-linejoin:round;stroke-miterlimit:4;stroke-dasharray:0.965, 1.93;stroke-dashoffset:0;stroke-opacity:1;paint-order:fill markers stroke;filter:url(#filter4928)"
       d="M 100.84374,55.368089 C 98.436318,55.167725 96.030342,54.831125 93.662115,54.33573 89.546484,53.369466 85.436939,52.36293 81.27752,51.60034 78.335636,50.9344 75.369221,50.39293 72.36308,50.134297 c -1.761593,-0.11889 -3.52861,-0.114551 -5.293309,-0.109992 -1.615911,0.08419 -3.263363,-0.145778 -4.856528,0.165989 -1.486175,0.401724 -3.052088,0.33088 -4.534887,0.705813 -1.494546,0.395594 -3.032884,0.537305 -4.571187,0.619955 -1.666132,0.06429 -3.334174,0.04449 -5.00125,0.04647 -1.612595,0.0016 -3.225191,0.0016 -4.837787,0.0019 -1.489996,0.335717 -2.998496,0.543735 -4.519946,0.660832 -0.970158,-0.05361 -1.851959,0.162216 -2.776156,0.40672 0,0 8.88732,-6.758027 8.88732,-6.758027 v 0 c 0.938834,-0.169453 1.885164,-0.198419 2.835052,-0.277636 1.530316,-0.170918 3.040206,-0.508664 4.579684,-0.57373 1.604946,0.0033 3.209888,0.0096 4.814837,0.01172 1.660488,-0.0026 3.322608,-0.0075 4.97972,-0.126812 1.514721,-0.135028 3.008299,-0.38616 4.491945,-0.721156 1.52871,-0.198329 3.05603,-0.395452 4.577781,-0.643147 1.636056,-0.08049 3.275211,-0.02917 4.912794,-0.04261 1.776886,0.0084 3.558193,0.0071 5.324044,0.235445 2.940862,0.392959 5.833718,1.047046 8.724275,1.708269 4.17114,0.844293 8.315828,1.814689 12.487898,2.656014 2.41854,0.39969 4.87544,0.726234 7.33129,0.674627 0,0 -9.07493,6.593321 -9.07493,6.593321 z"
       id="path3879" />
    <path
       transform="matrix(1.0377147,0,0,1.0326184,-1.3227228,-1.3848401)"
       style="opacity:0.98999999;fill:#000800;fill-opacity:1;stroke:#f00000;stroke-width:0.96499997;stroke-linecap:square;stroke-linejoin:round;stroke-miterlimit:4;stroke-dasharray:0.965, 1.93;stroke-dashoffset:0;stroke-opacity:1;paint-order:fill markers stroke;filter:url(#filter4924)"
       d="m 100.08779,99.213325 c -1.707966,-0.05296 -3.417354,-0.03765 -5.125936,-0.03385 -1.610309,0.0046 -3.220624,0.0073 -4.830942,0.0088 -1.515054,0.0011 -3.030109,0.0011 -4.545163,0.0011 -1.714236,-0.01707 -3.428601,-0.0092 -5.142884,-0.0057 -1.970675,-0.02574 -3.941461,-0.008 -5.912194,-0.0149 -1.827863,5.29e-4 -3.655705,0.01021 -5.483558,0.0154 -1.544759,0.004 -3.089521,0.0047 -4.634283,0.0051 -1.005866,1.85e-4 -2.011735,1.48e-4 -3.017602,1.27e-4 0,0 9.008917,-6.545361 9.008917,-6.545361 v 0 c 1.00575,-2.1e-5 2.0115,-5.8e-5 3.01725,1.27e-4 1.540082,5.29e-4 3.080166,0.0011 4.620242,0.0051 1.813713,0.0052 3.627419,0.01497 5.441143,0.0154 1.984393,-0.0069 3.968839,0.01072 5.953177,-0.0149 1.719525,0.0035 3.439131,0.01125 5.158605,-0.0057 1.514063,2.4e-5 3.028125,6e-6 4.542187,0.0011 1.602291,0.0013 3.204581,0.0041 4.806861,0.0088 1.73966,0.0039 3.48002,0.01791 5.21911,-0.03384 0,0 -9.07493,6.593319 -9.07493,6.593319 z"
       id="path3881" />
    <path
       transform="matrix(1.0377147,0,0,1.0326184,-1.3227228,-1.3848401)"
       style="opacity:0.98999999;fill:#000800;fill-opacity:1;stroke:#f00000;stroke-width:0.96499997;stroke-linecap:square;stroke-linejoin:round;stroke-miterlimit:4;stroke-dasharray:0.965, 1.93;stroke-dashoffset:0;stroke-opacity:1;paint-order:fill markers stroke;filter:url(#filter4920)"
       d="m 101.5997,146.08237 c -2.130309,-0.0654 -4.262768,-0.0655 -6.394035,-0.0597 -2.266143,-0.001 -4.532222,0.013 -6.798373,0.008 -2.123533,-0.22577 -4.226126,-0.55643 -6.329339,-0.91511 -2.842008,-0.46713 -5.696468,-0.87464 -8.500634,-1.54134 -2.578242,-0.66286 -5.207082,-1.04567 -7.858855,-1.23282 -1.697122,-0.0974 -3.397705,-0.0852 -5.096811,-0.0787 -1.507752,0.008 -3.015517,0.0122 -4.523288,0.0145 -1.494673,0.0657 -3.014313,-0.14978 -4.486478,0.1453 -0.674101,0.10641 -1.385539,0.34778 -1.97987,0.69411 -0.178985,0.10429 -0.668099,0.48705 -0.487738,0.38514 6.423888,-3.62947 12.159726,-7.10533 8.565624,-4.93014 -0.852295,0.66397 -1.69073,1.34774 -2.301897,2.24574 -0.874164,1.16702 -1.453149,2.53203 -2.038529,3.85998 -0.753018,1.43899 -1.184437,2.97412 -1.404893,4.57403 -0.157999,1.48795 -0.149611,2.98667 -0.150805,4.48102 0.0036,1.51073 0.0097,3.02146 0.01289,4.53219 -0.126132,1.69727 0.06723,3.30969 0.774268,4.86139 0.528775,1.29175 1.449298,2.2993 2.466806,3.22289 1.222235,1.04703 2.41014,2.12016 3.880038,2.80733 1.848874,0.84585 3.826949,1.33809 5.672576,2.18997 1.620446,0.65151 3.188629,1.38576 4.73292,2.19549 1.350044,0.64145 2.863358,0.67499 4.329401,0.73801 1.457224,0.19563 2.814627,0.73119 4.225628,1.10368 1.356199,0.16168 2.611131,0.68815 3.948571,0.94144 1.456475,0.11881 2.845114,0.55948 4.292184,0.75801 1.634054,0.0361 3.20071,0.33264 4.794406,0.65331 1.440585,0.11218 2.821729,0.46608 4.234355,0.74372 1.467628,0.26268 2.960364,0.30674 4.447183,0.33741 1.300365,0.33523 2.612475,0.56108 3.949895,0.67133 1.43921,0.15116 2.90283,-0.0519 4.32096,0.24219 0.87301,0.21213 1.75005,0.32534 2.60313,0.60712 0,0 -9.1953,6.31216 -9.1953,6.31216 v 0 c -0.83934,-0.17882 -1.681403,-0.34762 -2.527881,-0.48903 -1.428444,-0.0967 -2.865949,-0.0394 -4.290669,-0.20921 -1.306383,-0.15918 -2.581603,-0.48066 -3.88869,-0.61711 -1.528699,-0.062 -3.059543,-0.16574 -4.558646,-0.49148 -1.409713,-0.29839 -2.829322,-0.48781 -4.247502,-0.73746 -1.564629,-0.33105 -3.14026,-0.45622 -4.728736,-0.62797 -1.462448,-0.24321 -2.907422,-0.57867 -4.375703,-0.78886 -1.324817,-0.33031 -2.625281,-0.74702 -3.968351,-1.00467 -1.334362,-0.39558 -2.671085,-0.81174 -4.066841,-0.92664 -1.598285,-0.12667 -3.210224,-0.29561 -4.625528,-1.11781 -1.491107,-0.82145 -3.06093,-1.4675 -4.607727,-2.1756 -1.898255,-0.79918 -3.917661,-1.28784 -5.766236,-2.21246 -1.477087,-0.84032 -2.77559,-1.93894 -4.06744,-3.03665 -1.109247,-1.0333 -2.07986,-2.21545 -2.670206,-3.62674 -0.74507,-1.68136 -1.126625,-3.41907 -1.007486,-5.26657 -0.0026,-1.5111 -0.0074,-3.0222 -0.01368,-4.5333 -0.0034,-1.53356 -0.01672,-3.06955 0.09555,-4.60008 0.168651,-1.7044 0.497422,-3.37894 1.29254,-4.91604 0.660077,-1.32209 1.115722,-2.74213 1.845543,-4.03119 0.722775,-0.85112 1.190371,-1.89076 2.207181,-2.49691 3.351783,-3.49631 8.323794,-6.17341 13.207494,-6.97302 1.52073,-0.0719 3.043751,-0.025 4.565814,-0.0415 1.507051,-0.004 3.014099,-0.0107 4.521155,-0.009 1.698339,0.009 3.398893,0.0335 5.090083,0.206 2.638121,0.2927 5.242632,0.78102 7.816585,1.43221 2.834193,0.5753 5.697242,0.99748 8.556202,1.42955 2.071666,0.32516 4.155273,0.61423 6.248122,0.75329 2.259267,-0.006 4.518463,0.009 6.777723,0.008 2.18604,0.006 4.37308,0.004 6.55825,-0.0597 0,0 -9.07493,6.59332 -9.07493,6.59332 z"
       id="path3883" />
    <path
       transform="matrix(1.0377147,0,0,1.0326184,-1.3227228,-1.3848401)"
       style="opacity:0.98999999;fill:#000800;fill-opacity:1;stroke:#f00000;stroke-width:0.96499997;stroke-linecap:square;stroke-linejoin:round;stroke-miterlimit:4;stroke-dasharray:0.965, 1.93;stroke-dashoffset:0;stroke-opacity:1;paint-order:fill markers stroke;filter:url(#filter4916)"
       d="m 103.17852,188.59432 c -1.67462,0.25562 -3.28897,0.78915 -4.87139,1.3801 1.177255,-1.0087 -3.57577,1.69101 -2.207041,0.89943 15.635251,-9.04235 10.422421,-6.03163 7.102581,-3.96363 -1.69351,0.98386 -3.249107,2.17675 -4.878308,3.25955 -4.872413,2.36707 -9.173784,5.73433 -14.188734,7.75627 -1.667383,0.83212 -3.263738,1.82094 -4.982781,2.53689 -1.468625,0.62207 -2.898577,1.3702 -4.413176,1.87518 -1.457505,0.19883 -2.802972,0.73835 -4.176744,1.23002 -1.55869,0.31679 -3.014589,0.92012 -4.496112,1.47537 0.463769,-0.49624 -1.855126,0.8238 -1.413979,0.57123 22.969236,-13.15064 -0.228179,0.18777 -1.223245,0.77945 -2.962005,1.76125 5.961348,-3.45922 8.961186,-5.15523 0.191204,-0.1081 -0.354378,0.2596 -0.531566,0.38941 -0.922952,0.68133 -1.636152,1.58647 -2.456691,2.38749 -0.918133,0.68455 -1.896343,1.25108 -2.755628,2.01712 -0.908833,0.77338 -1.809009,1.56527 -2.634866,2.42771 -0.943266,0.97237 -1.964198,1.86436 -2.901775,2.84472 -0.801111,0.93327 -1.820286,1.60377 -2.739274,2.4062 -1.036447,0.9528 -2.164704,1.79967 -3.181622,2.77317 -0.979287,0.72201 -1.855047,1.52124 -2.629099,2.46094 -0.699439,1.01271 -1.428488,1.99943 -2.181386,2.97286 -0.123182,0.13419 -0.246364,0.26839 -0.369544,0.40258 0,0 -10.296186,4.37661 -10.296186,4.37661 v 0 c 0.115877,-0.15364 0.231754,-0.30729 0.347631,-0.46094 0.906767,-0.80286 1.602306,-1.86573 2.230922,-2.8911 0.735298,-0.98914 1.453443,-2.06494 2.569255,-2.64977 1.077812,-0.9 2.039657,-1.94005 3.191512,-2.75445 0.427342,-0.42286 0.866841,-0.95059 1.370171,-1.28785 0.505897,-0.33897 1.049322,-0.51625 1.356794,-1.10778 1.030309,-0.86343 1.82725,-1.97117 2.936269,-2.75296 0.790515,-0.94644 1.679171,-1.74802 2.565056,-2.5979 0.924275,-0.66325 1.623185,-1.62504 2.740449,-1.99808 0.990494,-0.67233 1.7272,-1.53797 2.454947,-2.4742 3.408682,-2.31618 7.252036,-3.95672 10.613715,-6.34061 2.794945,-1.982 -11.9327,6.73769 -8.900588,5.14197 3.464967,-1.82353 6.779976,-3.91943 10.200039,-5.82584 0.442841,-0.24685 0.993748,-0.25443 1.431787,-0.51319 1.481259,-0.56816 3.009091,-0.97017 4.514141,-1.4654 1.375233,-0.49743 2.800136,-0.79326 4.182271,-1.26106 1.448203,-0.62658 2.915545,-1.20768 4.329475,-1.91102 1.651503,-0.85625 3.307673,-1.71043 4.994016,-2.494 4.001482,-1.76583 11.664808,-6.64674 -4.858822,3.12265 1.707116,-0.98214 3.220175,-2.23874 4.888006,-3.2816 4.677785,-2.68156 9.020094,-6.14873 14.206264,-7.76302 1.64466,-0.56052 3.34603,-0.94177 5.04316,-1.30699 0,0 -8.94109,6.7697 -8.94109,6.7697 z"
       id="path3885" />
  </g>
</svg>
